<?xml version="1.0" encoding="UTF-8"?>
<svg id="Layer_2" xmlns="http://www.w3.org/2000/svg" version="1.1" viewBox="0 0 210.5 62.8">
  <!-- Generator: Adobe Illustrator 29.5.1, SVG Export Plug-In . SVG Version: 2.1.0 Build 141)  -->
  <defs>
    <style>
      .st0 {
        fill: #f5f5eb;
      }
    </style>
  </defs>
  <g id="Layer_1-2">
    <g>
      <path class="st0" d="M7.9,2.6h27.2s-2.2,11.6-2.2,11.6h-1.5c.9-8-1.9-8.9-5.8-8.9h-7.6l-2.9,14.1h2.5c5.2,0,5.9-.5,7.5-5.6h1.5l-2.8,14.1h-1.5c.5-5.2-.2-5.7-5.3-5.7h-2.4l-2.2,10.6c-.8,3.8-1.2,6.1,3.2,6.7l-.3,1.6H0l.3-1.6c4.1-.6,4.6-2.8,5.4-6.7l4.5-21.9c.8-3.8,1.3-6.1-2.5-6.7l.3-1.6h0Z"/>
      <path class="st0" d="M33.1,37.6c0-4.6,4.7-16.5,4.7-20s-.6-1.8-1.8-1.8-1.3.1-2.2.3l.2-1.3c1.4-.8,4.2-1.7,6.5-1.7s3.5,1.1,3.5,3.4c0,4.1-4.7,16.3-4.7,19.7s.5,1.8,2,1.8,2-.2,2.8-.4l-.2,1.3c-2.2,1.5-4.8,2.6-6.8,2.6s-3.9-1.5-3.9-4h0ZM39.3,4.6c0-2.5,1.7-4.1,3.9-4.1s4.2,1.8,4.2,4.5-1.7,4-3.9,4-4.2-1.8-4.2-4.5h0Z"/>
      <path class="st0" d="M70,16c0,1.6-.9,3.5-2,4.6-.9-.7-1.9-1.1-3.2-1.1-3,0-6.3,2.9-9.4,16l-1,5.7-6.8.5c3.4-12.8,5.8-22.4,5.8-24.3,0-1-.6-1.5-1.9-1.5s-1.3.1-2.2.3l.2-1.3c1.4-.8,4.2-1.7,6.5-1.7s3.5,1.1,3.5,3c0,1.6-1,4.1-2.3,8.4,4.2-10.1,7.5-11.8,9.8-11.8s3.1,1.3,3.1,3.1h0Z"/>
      <path class="st0" d="M69.3,36.5c0-2.6,1.8-4.1,4.2-4.1.4,5.1,1.8,7.3,5.1,7.3s4.9-1.7,4.9-4.5c0-5.6-10.1-6.5-10.1-13.6s4.3-8.6,9.8-8.6c3.7,0,7.3,1.6,7.3,5s-2.1,3.9-4.2,3.8c0-4.9-1-6.5-3.7-6.5s-3.8,1.5-3.8,3.8c0,5.5,10.2,5.6,10.2,13.9,0,5.4-4.3,9-11.3,9s-8.2-1.7-8.2-5.5h0Z"/>
      <path class="st0" d="M104.5,16.2l-3.1,12.5c-.7,2.8-1.5,5.7-1.5,7.2s.9,2.4,2.7,2.4,3.6-.4,4.8-.8l-.2,1.5c-2.6,1.8-5.3,2.8-7.8,2.8s-5.2-1.9-5.2-5.5c0-2.8,1.2-7,1.9-9.8l2.7-10.4h-4c0,0,.5-2.3.5-2.3,5.2,0,7.8-3.3,10.5-9.7h1.8l-2.3,9.5,6.9.2-.6,2.4-7,.2h0Z"/>
      <path class="st0" d="M153.1,39.2l-.3,1.6c-1.4.5-3.6,1-5.2,1-4.4,0-5.7-3.4-7.1-10-1-4.4-1-8-3.4-8h-1.9l-1.9,9.1c-.8,3.8-1.2,6.1,2.3,6.7l-.3,1.6h-14.2l.3-1.6c4.1-.6,4.6-2.8,5.4-6.7l4.5-21.9c.8-3.8,1.3-6.1-2.5-6.7l.3-1.6h14.9c7.6,0,11.4,2.5,11.3,7.4,0,5.9-4.4,10-10.3,12.1.6,2.2,1.3,4.9,1.7,6.5,1.9,7.5,2.7,10.7,6.5,10.5h0ZM135.6,21.1h2.8c5.6,0,9.8-4.4,9.8-10.8,0-3.6-2-4.8-5-4.8h-4.3s-3.2,15.6-3.2,15.6Z"/>
      <path class="st0" d="M154.3,31.3c0-9.5,6.8-18.3,14.4-18.3s9,4.1,9,10.7c0,9.4-6.7,18.2-14.4,18.2-5.4,0-9-4-9-10.7h0ZM171.7,21.8c0-3.9-1.1-6.3-3.3-6.3-4.4,0-8.2,10.3-8.2,17.7,0,3.9,1.1,6.3,3.4,6.3,4.4,0,8.1-10.2,8.1-17.7Z"/>
      <path class="st0" d="M179.9,37.7c0-3.1,1.9-9.8,6.9-30.2.8-3.3,1.4-5.2-2.9-5.1l.2-1.5L194.2,0l.5.7-2.4,8.3-2.7,11.1c-1.8,7.4-3.7,14.1-3.7,16.4,0,1.3.4,1.8,2,1.8.8,0,1.9-.2,2.9-.4l-.2,1.3c-2.1,1.5-4.9,2.6-6.9,2.6s-3.8-1.5-3.8-4h0Z"/>
      <path class="st0" d="M195.8,37.7c0-3.1,1.9-9.8,6.9-30.2.8-3.3,1.4-5.2-2.9-5.1l.2-1.5L210,0l.5.7-2.4,8.2-2.7,11c-1.8,7.4-3.7,14.1-3.7,16.4,0,1.3.4,1.8,2,1.8.8,0,1.9-.2,2.9-.4l-.2,1.3c-2.1,1.5-4.9,2.6-6.9,2.6s-3.8-1.5-3.8-4h0Z"/>
    </g>
    <g>
      <path class="st0" d="M68.8,46.3c-2.2.3-2.2,1.2-2.2,3.3v9.2c0,1.8,0,2.6,2,2.9v.7h-6.2v-.7c1.9-.3,1.9-1.2,1.9-2.9v-10.5l-5.4,14.1h-1.3c0,.1-5.3-13.7-5.3-13.7v9.9c0,1.9,0,2.7,1.9,3v.7h-5.1s0-.6,0-.6c2-.3,2-1.2,2-3v-9.7c0-1.6,0-2.5-2.2-2.8v-.7h4.7s4.3,11.1,4.3,11.1l1,2.8,5.3-13.9h4.7v.7h0Z"/>
      <path class="st0" d="M88.6,58.7c.7,2.1,1,2.8,2.8,3.2v.7h-6.5v-.7c2.1-.3,1.9-1.3,1.3-3.2l-.6-1.6h-6.4l-.4,1.1c-.8,2.4-1,3.3,1.3,3.7v.7h-5.5v-.7c1.9-.3,2.1-1.1,3-3.7l4.4-12.5h1.9s4.7,13.1,4.7,13.1ZM79.5,56h5.6l-1.7-4.8-1.1-3.2-2.8,8Z"/>
      <path class="st0" d="M106.5,54.3h5.9v.7c-1.6.2-1.6,1.1-1.6,2.5v3.7c-.8.5-2.7,1.7-5.6,1.7-4.5,0-8-3.3-8-8.9,0-5.2,3.4-8.6,8-8.6s5.4,1.9,5.4,3.5-.7,1.7-1.7,1.8c-.2-2-1.1-3.9-3.9-3.9-3.5,0-5.3,2.8-5.4,7.3,0,5,2.5,7.5,5.9,7.5s2.3-.3,3.1-.7v-3.3c0-1.5,0-2.3-2.2-2.5v-.7h0Z"/>
      <path class="st0" d="M132.5,58.7c.7,2.1,1,2.8,2.8,3.2v.7h-6.5v-.7c2.1-.3,1.9-1.3,1.3-3.2l-.6-1.6h-6.4l-.4,1.1c-.8,2.4-1,3.3,1.3,3.7v.7h-5.5v-.7c1.9-.3,2.1-1.1,3-3.7l4.4-12.5h1.9s4.7,13.1,4.7,13.1ZM123.5,56h5.6l-1.7-4.8-1.1-3.2s-2.8,8-2.8,8Z"/>
      <path class="st0" d="M154,56.2l-.3,6.3h-12l-.2-.6,9.3-15.1h-4.7c-2.1,0-3.1.7-3.4,4.4h-.7v-5.5h11.5l.2.6-9.3,15.1h4.3c3.4,0,4.2-.8,4.6-5.2h.7,0Z"/>
      <path class="st0" d="M160.5,62.6v-.7c2-.3,2-1.2,2-2.9v-9.6c0-1.8,0-2.6-2-2.9v-.7h6.3v.7c-2,.3-2,1.2-2,2.9v9.6c0,1.8,0,2.6,2,2.9v.7s-6.3,0-6.3,0Z"/>
      <path class="st0" d="M186.1,62.7l-8.9-14.5h0v10.6c0,1.9,0,2.7,2,3v.7h-5.3v-.7c2-.3,2-1.2,2-3v-9.4c0-1.8,0-2.7-2.2-3v-.7h4.6l6.6,10.8,1.3,2.3h0v-9.4c0-1.9,0-2.7-2.1-3v-.7h5.3v.7c-2,.3-2,1.2-2,3v13.1h-1.4c0,.1,0,.1,0,.1Z"/>
      <path class="st0" d="M209.6,56.8v5.8h-13.1v-.7c2-.3,2-1.2,2-2.9v-9.6c0-1.8,0-2.6-2-2.9v-.7h12.7s0,5,0,5h-.7c-.4-3.3-1.2-3.9-3.4-3.9h-4.5v6.3h1.5c2.8,0,2.9-.4,3.1-2.5h.7v6h-.7c-.2-2.1-.3-2.5-3.1-2.5h-1.5v4.8c0,1.9,0,2.3,1.8,2.3h2.1c3.3,0,3.8-1.1,4.2-4.7h.7,0Z"/>
    </g>
  </g>
</svg>