<?xml version="1.0" encoding="UTF-8"?>
<svg id="Layer_2" data-name="Layer 2" xmlns="http://www.w3.org/2000/svg" viewBox="0 0 210.53 62.84">
  <defs>
    <style>
      .cls-1 {
        fill: #334025;
      }
    </style>
  </defs>
  <g id="Layer_1-2" data-name="Layer 1">
    <g>
      <path class="cls-1" d="M7.89,2.62l27.15.03-2.16,11.6h-1.55c.91-7.97-1.94-8.86-5.84-8.86h-7.65s-2.91,14.07-2.91,14.07h2.5c5.2,0,5.95-.49,7.51-5.65h1.45s-2.76,14.08-2.76,14.08h-1.45c.55-5.17-.24-5.67-5.34-5.67h-2.45s-2.21,10.61-2.21,10.61c-.75,3.85-1.21,6.1,3.19,6.71l-.3,1.59H0s.3-1.61.3-1.61c4.1-.6,4.55-2.8,5.36-6.7l4.47-21.88c.8-3.85,1.26-6.1-2.54-6.71l.3-1.59Z"/>
      <path class="cls-1" d="M33.1,37.62c0-4.56,4.72-16.55,4.72-20.01,0-1.26-.6-1.76-1.75-1.76-.6,0-1.35.11-2.25.33l.2-1.26c1.4-.77,4.25-1.7,6.45-1.7,2.3,0,3.45,1.1,3.45,3.36,0,4.07-4.67,16.33-4.67,19.74,0,1.26.45,1.82,1.95,1.82.85,0,1.95-.22,2.85-.38l-.25,1.26c-2.15,1.54-4.8,2.58-6.8,2.58-2.45,0-3.9-1.54-3.9-3.96ZM39.33,4.63c0-2.48,1.65-4.07,3.9-4.07,2.6,0,4.25,1.82,4.25,4.51,0,2.42-1.65,4.01-3.9,4.01-2.6,0-4.25-1.76-4.25-4.46Z"/>
      <path class="cls-1" d="M69.97,15.99c0,1.59-.9,3.52-2,4.62-.95-.66-1.95-1.1-3.25-1.1-3.05,0-6.35,2.91-9.37,15.99l-1.01,5.66-6.75.54c3.41-12.81,5.82-22.43,5.77-24.3,0-1.04-.6-1.54-1.9-1.54-.6,0-1.35.11-2.25.33l.2-1.26c1.4-.77,4.25-1.7,6.5-1.7,2.3,0,3.45,1.1,3.45,3.03.05,1.59-.95,4.07-2.26,8.41,4.21-10.11,7.46-11.76,9.81-11.76,1.8,0,3.05,1.27,3.05,3.08Z"/>
      <path class="cls-1" d="M69.35,36.5c0-2.58,1.85-4.07,4.25-4.12.44,5.06,1.84,7.26,5.09,7.26,3,0,4.9-1.7,4.91-4.45,0-5.61-10.14-6.5-10.14-13.65,0-5.28,4.31-8.63,9.76-8.62,3.65,0,7.3,1.6,7.3,5.01,0,2.2-2.05,3.9-4.2,3.79,0-4.89-.99-6.49-3.74-6.49-2.5,0-3.85,1.54-3.85,3.84,0,5.5,10.2,5.62,10.19,13.87,0,5.39-4.26,9.01-11.31,9.01-4.5,0-8.25-1.71-8.25-5.45Z"/>
      <path class="cls-1" d="M104.47,16.25l-3.06,12.53c-.65,2.75-1.46,5.66-1.46,7.15,0,1.59.9,2.37,2.65,2.37,1.15,0,3.6-.44,4.8-.82l-.25,1.48c-2.55,1.76-5.35,2.8-7.85,2.8-3.4,0-5.2-1.87-5.19-5.5,0-2.8,1.16-6.98,1.91-9.84l2.66-10.39-4-.06.5-2.25c5.2,0,7.75-3.35,10.46-9.67h1.8s-2.31,9.46-2.31,9.46l6.9.23-.55,2.36-7,.16Z"/>
      <path class="cls-1" d="M153.05,39.22l-.3,1.59c-1.4.55-3.55,1.04-5.2,1.04-4.45,0-5.7-3.42-7.14-10.01-1-4.4-.99-7.97-3.44-7.98h-1.95s-1.86,9.07-1.86,9.07c-.75,3.85-1.21,6.1,2.29,6.71l-.3,1.59h-14.15s.3-1.61.3-1.61c4.1-.6,4.55-2.8,5.36-6.7l4.47-21.88c.8-3.85,1.26-6.1-2.54-6.71l.3-1.59h14.9c7.6.02,11.35,2.5,11.34,7.4,0,5.94-4.41,9.95-10.26,12.09.55,2.2,1.29,4.9,1.69,6.49,1.94,7.48,2.74,10.73,6.49,10.51ZM135.62,21.12h2.8c5.6,0,9.75-4.44,9.76-10.77,0-3.57-2-4.84-5.04-4.84h-4.3s-3.22,15.61-3.22,15.61Z"/>
      <path class="cls-1" d="M154.31,31.31c0-9.51,6.77-18.3,14.37-18.3,5.35,0,9,4.08,8.99,10.73,0,9.4-6.72,18.25-14.37,18.24-5.4,0-9-4.02-8.99-10.68ZM171.72,21.81c0-3.85-1.09-6.27-3.34-6.27-4.4,0-8.16,10.33-8.17,17.7,0,3.91,1.14,6.27,3.39,6.27,4.35,0,8.11-10.17,8.12-17.7Z"/>
      <path class="cls-1" d="M179.95,37.71c0-3.08,1.86-9.79,6.88-30.24.8-3.3,1.41-5.22-2.89-5.12l.25-1.54,10.05-.82.5.71-2.36,8.25-2.71,11.05c-1.81,7.37-3.66,14.07-3.67,16.44,0,1.26.45,1.81,2,1.82.8,0,1.95-.22,2.85-.38l-.25,1.26c-2.15,1.54-4.85,2.58-6.85,2.58-2.55,0-3.8-1.49-3.8-4.02Z"/>
      <path class="cls-1" d="M195.75,37.73c0-3.08,1.86-9.79,6.88-30.24.8-3.3,1.41-5.22-2.89-5.12l.25-1.54L210.04.02l.5.71-2.36,8.25-2.71,11.05c-1.81,7.37-3.66,14.07-3.67,16.44,0,1.26.45,1.81,2,1.82.8,0,1.95-.22,2.85-.38l-.25,1.26c-2.15,1.54-4.85,2.58-6.85,2.58-2.55,0-3.8-1.49-3.8-4.02Z"/>
    </g>
    <g>
      <path class="cls-1" d="M68.77,46.34c-2.21.31-2.21,1.15-2.21,3.31v9.22c-.01,1.78-.01,2.62,2,2.93v.67s-6.24,0-6.24,0v-.67c1.92-.31,1.92-1.15,1.92-2.93v-10.51s-5.38,14.11-5.38,14.11l-1.32.14-5.34-13.81v9.94c-.01,1.9-.01,2.74,1.88,3.05v.67s-5.14.02-5.14.02v-.65c2.02-.31,2.02-1.17,2.02-3.05v-9.67c.01-1.58.01-2.45-2.2-2.76v-.67s4.71-.02,4.71-.02l4.29,11.12,1.03,2.81,5.29-13.92h4.68s0,.68,0,.68Z"/>
      <path class="cls-1" d="M88.61,58.65c.74,2.06,1,2.83,2.76,3.17v.67s-6.53,0-6.53,0v-.67c2.14-.33,1.95-1.29,1.3-3.17l-.55-1.56h-6.43s-.38,1.07-.38,1.07c-.84,2.42-1.01,3.31,1.27,3.65v.67s-5.5,0-5.5,0v-.67c1.87-.31,2.11-1.13,3-3.67l4.43-12.55h1.94s4.69,13.06,4.69,13.06ZM79.54,55.95h5.64s-1.72-4.82-1.72-4.82l-1.08-3.22-2.84,8.04Z"/>
      <path class="cls-1" d="M106.54,54.32h5.86s0,.65,0,.65c-1.56.24-1.61,1.06-1.61,2.52l.02,3.65c-.82.53-2.71,1.7-5.64,1.7-4.54,0-8.01-3.3-7.96-8.86.03-5.21,3.39-8.61,8-8.61,3.67,0,5.4,1.9,5.4,3.46,0,1.03-.72,1.73-1.66,1.75-.24-1.99-1.08-3.91-3.88-3.92-3.48,0-5.31,2.85-5.36,7.32-.03,5.02,2.54,7.54,5.9,7.54,1.27,0,2.26-.29,3.1-.74v-3.29c0-1.46-.02-2.28-2.16-2.52v-.65Z"/>
      <path class="cls-1" d="M132.53,58.69c.74,2.06,1,2.83,2.76,3.17v.67s-6.53,0-6.53,0v-.67c2.14-.33,1.95-1.29,1.3-3.17l-.55-1.56h-6.43s-.38,1.07-.38,1.07c-.84,2.42-1.01,3.31,1.27,3.65v.67s-5.5,0-5.5,0v-.67c1.87-.31,2.11-1.13,3-3.67l4.43-12.55h1.94s4.69,13.06,4.69,13.06ZM123.46,56h5.64s-1.72-4.82-1.72-4.82l-1.08-3.22-2.84,8.04Z"/>
      <path class="cls-1" d="M154.03,56.22l-.32,6.34h-12s-.22-.59-.22-.59l9.3-15.09h-4.7c-2.06,0-3.07.67-3.39,4.36h-.67s.13-5.5.13-5.5h11.35s.24.59.24.59l-9.3,15.09h4.34c3.41,0,4.23-.81,4.57-5.2h.67Z"/>
      <path class="cls-1" d="M160.46,62.56v-.67c2.02-.31,2.02-1.15,2.02-2.93v-9.6c.01-1.78.01-2.62-2-2.93v-.67s6.34,0,6.34,0v.67c-2.02.31-2.02,1.15-2.02,2.93v9.6c-.01,1.78-.01,2.62,2,2.93v.67s-6.34,0-6.34,0Z"/>
      <path class="cls-1" d="M186.11,62.73l-8.92-14.51h-.02v10.63c-.01,1.9-.01,2.74,2.03,3.05v.67s-5.3,0-5.3,0v-.67c2.02-.31,2.02-1.15,2.02-3.05v-9.41c.01-1.85.01-2.69-2.22-3v-.67s4.61,0,4.61,0l6.64,10.83,1.32,2.33h.05v-9.43c.01-1.9.01-2.74-2.05-3.05v-.67s5.31,0,5.31,0v.67c-2.02.31-2.02,1.15-2.02,3.05v13.08s-1.43.14-1.43.14Z"/>
      <path class="cls-1" d="M209.57,56.78l-.13,5.83h-12.99s0-.68,0-.68c1.97-.31,1.97-1.15,1.97-2.93v-9.6c.01-1.78.01-2.62-1.96-2.93v-.67s12.72.01,12.72.01l.09,5.04h-.67c-.36-3.34-1.2-3.91-3.4-3.92h-4.46s0,6.26,0,6.26h1.49c2.83,0,2.88-.36,3.1-2.47h.67s0,6.05,0,6.05h-.67c-.21-2.09-.26-2.47-3.09-2.48h-1.49s0,4.85,0,4.85c0,1.94,0,2.33,1.82,2.33h2.14c3.29,0,3.84-1.07,4.18-4.7h.7Z"/>
    </g>
  </g>
</svg>