<?xml version="1.0" encoding="UTF-8"?>
<svg id="Layer_1" xmlns="http://www.w3.org/2000/svg" viewBox="0 0 442.35 153.09">
  <defs>
    <style>
      .cls-1 {
        fill: #020302;
      }

      .cls-2 {
        fill: #272525;
      }

      .cls-3 {
        fill: #bbb8cb;
      }
    </style>
  </defs>
  <g>
    <path class="cls-2" d="M113.7,41.04c5.04,0,8.55-3.05,16.11-3.05,12.98,0,21.22,8.32,21.22,21.15,0,13.74-9.54,22.37-24.74,22.37h-1.79c-.78,0-1.41.63-1.41,1.41v8.62c0,.78-.63,1.41-1.41,1.41h-14.35c-.78,0-1.41-.63-1.41-1.41v-50.44c0-1,1.01-1.67,1.94-1.31,2.16.83,4,1.25,5.85,1.25ZM125.38,68.52c4.66,0,8.02-2.21,8.02-9.01,0-5.04-2.14-7.79-5.5-7.79s-4.81,2.29-4.81,5.88v9.5c0,.78.63,1.41,1.41,1.41h.88Z"/>
    <path class="cls-2" d="M152.17,70.66c0-6.03,3.51-11.99,18.48-14.2l.88-.12c1.39-.19,1.69-2.09.41-2.68s-3.02-.93-4.96-.93c-3.59,0-6.53,1.13-8.72,2.94-.9.75-2.28.05-2.28-1.12v-13.94c0-.65.44-1.22,1.07-1.37,3-.75,7.1-1.23,11.37-1.23,15.57,0,23.59,6.34,23.59,19.24v22.59c0,1.02-1.04,1.71-1.97,1.3-2.52-1.11-4.67-1.75-7.11-1.75-5.57,0-9.16,3.66-16.72,3.66-8.93,0-14.05-5.04-14.05-12.37ZM175.23,67.45v-1.82c0-.88-.8-1.55-1.67-1.39h-.01c-4.05.77-5.65,2.29-5.65,4.51s1.45,3.28,3.44,3.28,3.89-1.15,3.89-4.58Z"/>
    <path class="cls-2" d="M205.23,41.65c5.27,0,8.25-3.28,14.2-3.28.95,0,1.86.07,2.76.22.69.11,1.21.7,1.21,1.4v14.4c0,1.25-1.47,1.86-2.39,1.02-1.27-1.15-2.62-1.92-4.09-1.92-2.14,0-2.75,1.53-2.75,4.73v21.87c0,.78-.63,1.41-1.41,1.41h-14.73c-.78,0-1.41-.63-1.41-1.41v-38.77c0-1.04,1.08-1.72,2.02-1.27,2.48,1.17,4.55,1.61,6.61,1.61Z"/>
    <path class="cls-2" d="M230,54.78h-2.9c-.78,0-1.41-.63-1.41-1.41v-12.47c0-.77.62-1.38,1.38-1.41,7.32-.29,14.04-2.89,19.47-8.56.88-.92,2.43-.31,2.43.97v6.2c0,.78.63,1.41,1.41,1.41h4.81c.78,0,1.41.63,1.41,1.41v12.44c0,.78-.63,1.41-1.41,1.41h-4.81c-.78,0-1.41.63-1.41,1.41v23.89c0,.78-.63,1.41-1.41,1.41h-14.73c-.78,0-1.41-.63-1.41-1.41v-23.89c0-.78-.63-1.41-1.41-1.41Z"/>
    <path class="cls-2" d="M258.9,79.1c0-.78.63-1.41,1.41-1.41h5.53c2.52,0,3.21-1.37,2.29-4.58l-9.1-31.79c-.26-.9.42-1.8,1.36-1.8h14.93c.66,0,1.24.46,1.38,1.11l4.1,18.56c.34,1.52,2.53,1.46,2.78-.08l2.92-18.39c.11-.69.7-1.19,1.4-1.19h15.54c.94,0,1.62.9,1.36,1.81l-9.02,31.02c-4.43,15.12-12.52,20.61-32.22,20.61h-3.24c-.78,0-1.41-.63-1.41-1.41v-12.44Z"/>
    <path class="cls-2" d="M324.29,28.06h14.73c.78,0,1.41.63,1.41,1.41v8.56c0,1,1.01,1.7,1.92,1.31,2.19-.92,4.79-1.36,7.69-1.36,10.69,0,16.19,5.95,16.19,17.18v24.93c0,.78-.63,1.41-1.41,1.41h-14.73c-.78,0-1.41-.63-1.41-1.41v-21.87c0-3.51-1.76-4.89-4.12-4.89s-4.12,1.37-4.12,4.89v21.87c0,.78-.63,1.41-1.41,1.41h-14.73c-.78,0-1.41-.63-1.41-1.41V29.47c0-.78.63-1.41,1.41-1.41Z"/>
    <path class="cls-2" d="M369.29,70.66c0-6.03,3.51-11.99,18.48-14.2l.88-.12c1.39-.19,1.69-2.09.41-2.68s-3.02-.93-4.96-.93c-3.59,0-6.53,1.13-8.72,2.94-.9.75-2.28.05-2.28-1.12v-13.94c0-.65.44-1.22,1.07-1.37,3-.75,7.1-1.23,11.37-1.23,15.58,0,23.59,6.34,23.59,19.24v22.59c0,1.02-1.04,1.71-1.97,1.3-2.52-1.11-4.67-1.75-7.12-1.75-5.57,0-9.16,3.66-16.72,3.66-8.93,0-14.05-5.04-14.05-12.37ZM392.34,67.45v-1.82c0-.88-.8-1.55-1.67-1.39h-.01c-4.05.77-5.65,2.29-5.65,4.51s1.45,3.28,3.44,3.28,3.89-1.15,3.89-4.58Z"/>
    <path class="cls-2" d="M415.74,54.78h-2.9c-.78,0-1.41-.63-1.41-1.41v-12.47c0-.77.62-1.38,1.38-1.41,7.32-.29,14.04-2.89,19.47-8.56.88-.92,2.43-.31,2.43.97v6.2c0,.78.63,1.41,1.41,1.41h4.81c.78,0,1.41.63,1.41,1.41v12.44c0,.78-.63,1.41-1.41,1.41h-4.81c-.78,0-1.41.63-1.41,1.41v23.89c0,.78-.63,1.41-1.41,1.41h-14.73c-.78,0-1.41-.63-1.41-1.41v-23.89c0-.78-.63-1.41-1.41-1.41Z"/>
  </g>
  <g>
    <path class="cls-2" d="M127.38,112.04l-.73.11c-1.08.17-2.11-.49-2.44-1.53-.58-1.85-2.08-3.6-4.9-3.6-3.63,0-6.49,3.05-6.49,8.17,0,5.8,3.47,8.17,7.22,8.17,2.17,0,3.86-.95,5.05-2.02.88-.79,2.22-.71,3.04.14l.2.21c.83.87.83,2.25-.03,3.08-1.63,1.56-4.36,3.29-8.4,3.29-7.48,0-12.52-4.89-12.52-12.87s4.96-12.86,11.87-12.86c6.11,0,9.05,3.49,9.96,6.97.33,1.27-.51,2.55-1.81,2.75Z"/>
    <path class="cls-2" d="M182.57,115.16c0,7.94-5.04,12.9-12.25,12.9s-12.29-4.96-12.29-12.9,5.08-12.83,12.29-12.83,12.25,4.96,12.25,12.83ZM177.07,115.16c0-5.12-2.82-8.13-6.76-8.13s-6.79,3.02-6.79,8.13,2.86,8.17,6.79,8.17,6.76-3.02,6.76-8.17Z"/>
    <path class="cls-2" d="M237.74,127.79h-.92c-1.22,0-2.21-.99-2.21-2.21l.03-11.07c0-1.15.12-2.79.15-3.02l-.15-.04c-.08.31-.5,1.72-.8,2.37l-5.5,12.79c-.35.81-1.15,1.34-2.03,1.34h0c-.88,0-1.67-.52-2.02-1.33l-5.64-12.95c-.38-.92-.69-2.02-.73-2.21l-.19.04c.08.23.19,1.91.19,3.02l.03,11.07c0,1.22-.99,2.21-2.21,2.21h-.88c-1.22,0-2.21-.99-2.21-2.21v-20.78c0-1.22.99-2.21,2.21-2.21h2.14c.86,0,1.65.5,2.01,1.29l5.55,12.08c.73,1.6,1.6,3.85,1.76,4.43h.15c.11-.57,1.03-2.83,1.76-4.47l5.48-12.03c.36-.79,1.14-1.29,2.01-1.29h2.02c1.22,0,2.21.99,2.21,2.21v20.78c0,1.22-.99,2.21-2.21,2.21Z"/>
    <path class="cls-2" d="M290.99,111.53c0,5.96-4.16,8.93-9.85,8.93h-2.14c-1.22,0-2.21.99-2.21,2.21v2.91c0,1.22-.99,2.21-2.21,2.21h-1c-1.22,0-2.21-.99-2.21-2.21v-20.78c0-1.22.99-2.21,2.21-2.21h6.84c6.6,0,10.57,2.98,10.57,8.93ZM285.5,111.53c0-2.86-1.87-4.66-5.61-4.66h-.88c-1.22,0-2.21.99-2.21,2.21v4.9c0,1.22.99,2.21,2.21,2.21h1.11c3.44,0,5.38-1.64,5.38-4.66Z"/>
    <path class="cls-2" d="M331.28,122.41h-5.92c-.96,0-1.8.61-2.1,1.52l-.76,2.34c-.3.91-1.14,1.52-2.1,1.52h-.81c-1.52,0-2.59-1.51-2.08-2.95l7.37-20.78c.31-.88,1.15-1.47,2.08-1.47h2.72c.94,0,1.77.59,2.08,1.47l7.34,20.78c.51,1.44-.56,2.94-2.08,2.94h-.77c-.96,0-1.8-.61-2.1-1.52l-.76-2.34c-.3-.91-1.14-1.52-2.1-1.52ZM328.54,118.32c1.5,0,2.57-1.47,2.1-2.89l-1.5-4.59c-.27-.8-.57-1.91-.76-2.86h-.11c-.15.95-.5,2.06-.76,2.9l-1.47,4.56c-.46,1.43.6,2.89,2.1,2.89h.41Z"/>
    <path class="cls-2" d="M388.1,127.79h-1.77c-.74,0-1.42-.37-1.83-.98l-7.48-11.16c-.99-1.53-2.29-3.7-2.9-4.7l-.23.12c.15.57.19,2.52.19,4.54l.03,9.96c0,1.22-.99,2.22-2.21,2.22h-.81c-1.22,0-2.21-.99-2.21-2.21v-20.78c0-1.22.99-2.21,2.21-2.21h1.42c.74,0,1.43.37,1.84.98l7.86,11.77c1.3,1.95,2.44,4.01,2.86,4.77l.23-.12c-.11-.69-.23-2.6-.23-4.7l-.03-10.5c0-1.22.99-2.21,2.21-2.21h.85c1.22,0,2.21.99,2.21,2.21v20.78c0,1.22-.99,2.21-2.21,2.21Z"/>
    <path class="cls-2" d="M433,119.22v6.37c0,1.22-.99,2.21-2.21,2.21h-1.01c-1.22,0-2.21-.99-2.21-2.21v-6.29c0-.36-.09-.72-.26-1.03l-6.58-12.42c-.78-1.47.29-3.24,1.95-3.24h.81c.84,0,1.6.47,1.97,1.22l3.63,7.25c.53,1.07,1.07,2.44,1.22,3.13h.11c.15-.69.65-2.06,1.18-3.13l3.59-7.25c.37-.75,1.14-1.23,1.98-1.23h.65c1.66,0,2.73,1.77,1.95,3.24l-6.54,12.35c-.17.32-.26.67-.26,1.03Z"/>
    <path class="cls-2" d="M127.38,112.04l-.73.11c-1.08.17-2.11-.49-2.44-1.53-.58-1.85-2.08-3.6-4.9-3.6-3.63,0-6.49,3.05-6.49,8.17,0,5.8,3.47,8.17,7.22,8.17,2.17,0,3.86-.95,5.05-2.02.88-.79,2.22-.71,3.04.14l.2.21c.83.87.83,2.25-.03,3.08-1.63,1.56-4.36,3.29-8.4,3.29-7.48,0-12.52-4.89-12.52-12.87s4.96-12.86,11.87-12.86c6.11,0,9.05,3.49,9.96,6.97.33,1.27-.51,2.55-1.81,2.75Z"/>
    <path class="cls-2" d="M182.57,115.16c0,7.94-5.04,12.9-12.25,12.9s-12.29-4.96-12.29-12.9,5.08-12.83,12.29-12.83,12.25,4.96,12.25,12.83ZM177.07,115.16c0-5.12-2.82-8.13-6.76-8.13s-6.79,3.02-6.79,8.13,2.86,8.17,6.79,8.17,6.76-3.02,6.76-8.17Z"/>
    <path class="cls-2" d="M237.74,127.79h-.92c-1.22,0-2.21-.99-2.21-2.21l.03-11.07c0-1.15.12-2.79.15-3.02l-.15-.04c-.08.31-.5,1.72-.8,2.37l-5.5,12.79c-.35.81-1.15,1.34-2.03,1.34h0c-.88,0-1.67-.52-2.02-1.33l-5.64-12.95c-.38-.92-.69-2.02-.73-2.21l-.19.04c.08.23.19,1.91.19,3.02l.03,11.07c0,1.22-.99,2.21-2.21,2.21h-.88c-1.22,0-2.21-.99-2.21-2.21v-20.78c0-1.22.99-2.21,2.21-2.21h2.14c.86,0,1.65.5,2.01,1.29l5.55,12.08c.73,1.6,1.6,3.85,1.76,4.43h.15c.11-.57,1.03-2.83,1.76-4.47l5.48-12.03c.36-.79,1.14-1.29,2.01-1.29h2.02c1.22,0,2.21.99,2.21,2.21v20.78c0,1.22-.99,2.21-2.21,2.21Z"/>
    <path class="cls-2" d="M290.99,111.53c0,5.96-4.16,8.93-9.85,8.93h-2.14c-1.22,0-2.21.99-2.21,2.21v2.91c0,1.22-.99,2.21-2.21,2.21h-1c-1.22,0-2.21-.99-2.21-2.21v-20.78c0-1.22.99-2.21,2.21-2.21h6.84c6.6,0,10.57,2.98,10.57,8.93ZM285.5,111.53c0-2.86-1.87-4.66-5.61-4.66h-.88c-1.22,0-2.21.99-2.21,2.21v4.9c0,1.22.99,2.21,2.21,2.21h1.11c3.44,0,5.38-1.64,5.38-4.66Z"/>
    <path class="cls-2" d="M331.28,122.41h-5.92c-.96,0-1.8.61-2.1,1.52l-.76,2.34c-.3.91-1.14,1.52-2.1,1.52h-.81c-1.52,0-2.59-1.51-2.08-2.95l7.37-20.78c.31-.88,1.15-1.47,2.08-1.47h2.72c.94,0,1.77.59,2.08,1.47l7.34,20.78c.51,1.44-.56,2.94-2.08,2.94h-.77c-.96,0-1.8-.61-2.1-1.52l-.76-2.34c-.3-.91-1.14-1.52-2.1-1.52ZM328.54,118.32c1.5,0,2.57-1.47,2.1-2.89l-1.5-4.59c-.27-.8-.57-1.91-.76-2.86h-.11c-.15.95-.5,2.06-.76,2.9l-1.47,4.56c-.46,1.43.6,2.89,2.1,2.89h.41Z"/>
    <path class="cls-2" d="M388.1,127.79h-1.77c-.74,0-1.42-.37-1.83-.98l-7.48-11.16c-.99-1.53-2.29-3.7-2.9-4.7l-.23.12c.15.57.19,2.52.19,4.54l.03,9.96c0,1.22-.99,2.22-2.21,2.22h-.81c-1.22,0-2.21-.99-2.21-2.21v-20.78c0-1.22.99-2.21,2.21-2.21h1.42c.74,0,1.43.37,1.84.98l7.86,11.77c1.3,1.95,2.44,4.01,2.86,4.77l.23-.12c-.11-.69-.23-2.6-.23-4.7l-.03-10.5c0-1.22.99-2.21,2.21-2.21h.85c1.22,0,2.21.99,2.21,2.21v20.78c0,1.22-.99,2.21-2.21,2.21Z"/>
    <path class="cls-2" d="M433,119.22v6.37c0,1.22-.99,2.21-2.21,2.21h-1.01c-1.22,0-2.21-.99-2.21-2.21v-6.29c0-.36-.09-.72-.26-1.03l-6.58-12.42c-.78-1.47.29-3.24,1.95-3.24h.81c.84,0,1.6.47,1.97,1.22l3.63,7.25c.53,1.07,1.07,2.44,1.22,3.13h.11c.15-.69.65-2.06,1.18-3.13l3.59-7.25c.37-.75,1.14-1.23,1.98-1.23h.65c1.66,0,2.73,1.77,1.95,3.24l-6.54,12.35c-.17.32-.26.67-.26,1.03Z"/>
  </g>
  <path class="cls-3" d="M46.19,12.2C35.14,41.07,7.64,118.12,2.18,132.62c-1.68,3.37.02,6.48,2.85,8.7,21.12,13.6,61.81,13.63,82.64-.24,2.47-2.01,4.13-5.08,2.75-7.93-4.89-12.97-33.23-92.29-44.21-120.95h-.01Z"/>
  <circle class="cls-3" cx="46.2" cy="12.06" r="10.56"/>
  <path class="cls-1" d="M91.8,132.56c-1.78-4.72-6.53-17.84-12.53-34.43-8.62-23.85-19.9-55.01-27.49-75.4,3.85-2,6.48-6.03,6.48-10.67,0-6.65-5.41-12.06-12.06-12.06s-12.06,5.41-12.06,12.06c0,4.64,2.63,8.67,6.48,10.67-7.31,19.62-17.83,48.71-26.58,72.91-6.01,16.6-11.19,30.94-13.24,36.38-1.77,3.63-.57,7.45,3.3,10.48l.11.08c10.89,7.01,26.48,10.51,42.03,10.51s31.48-3.59,42.25-10.76l.12-.08c3.4-2.77,4.65-6.57,3.19-9.69ZM37.14,12.06c0-5,4.07-9.06,9.06-9.06s9.06,4.06,9.06,9.06c0,3.34-1.83,6.27-4.54,7.84-.86.5-1.8.86-2.81,1.05-.55.1-1.13.16-1.71.16s-1.16-.06-1.71-.16c-1.01-.19-1.95-.55-2.81-1.05-2.71-1.57-4.54-4.5-4.54-7.84ZM46.2,24.11c.95,0,1.88-.11,2.77-.33.46,1.24.94,2.53,1.43,3.85-1.16.46-2.52.91-4.12,1.32-1.68.44-3.39.67-5.06.78.77-2.06,1.5-4.05,2.21-5.95.89.22,1.82.33,2.77.33ZM40.09,32.79c2.23-.07,4.61-.33,6.94-.93,1.7-.44,3.15-.92,4.41-1.41,1.02,2.75,2.08,5.62,3.17,8.6-1.88.91-4.37,1.87-7.64,2.72-3.56.92-7.3,1.14-10.57,1.06,1.28-3.47,2.51-6.83,3.69-10.04ZM35.31,45.81c.72.03,1.45.05,2.22.05,3.19,0,6.74-.3,10.19-1.19,3.3-.86,5.9-1.84,7.93-2.79,1.34,3.65,2.71,7.42,4.12,11.27-2.51,1.46-6.32,3.18-11.93,4.63-6.03,1.57-12.44,1.54-17.3,1.13,1.62-4.46,3.22-8.85,4.77-13.1ZM29.47,61.85c1.93.18,4.11.32,6.47.32,3.97,0,8.37-.37,12.66-1.48,5.54-1.44,9.47-3.15,12.21-4.68,1.75,4.81,3.53,9.71,5.31,14.6-2.97,2.03-8.3,4.89-17.19,7.19-9.32,2.42-19.36,1.82-25.62,1.03,2.04-5.64,4.11-11.35,6.16-16.98ZM16.86,96.66c1.74-4.82,3.55-9.83,5.4-14.93,3.08.42,7.15.81,11.69.81,4.93,0,10.41-.46,15.73-1.83,8.64-2.25,14.15-5.01,17.49-7.19,2.32,6.4,4.61,12.72,6.78,18.72-3.04,2.49-10.04,7.05-23.66,10.59-13.83,3.58-28.91,1.89-35.93.74.8-2.23,1.64-4.53,2.5-6.91ZM3.52,133.29l.06-.14c1.64-4.34,5.16-14.05,9.73-26.69,3.89.67,10.49,1.56,18.16,1.56,6.14,0,12.95-.57,19.57-2.29,13.03-3.38,20.3-7.68,23.99-10.5.48,1.32.96,2.63,1.42,3.92,2.71,7.49,5.16,14.27,7.2,19.9-2.07,2.12-10.56,9.58-31.66,15.06-20.55,5.33-43.32,1.37-48.86.25.08-.35.21-.71.39-1.07ZM86.77,139.87c-20.19,13.38-60.19,13.5-80.87.23-.87-.69-1.73-1.56-2.29-2.58,4.25.83,13.6,2.34,24.76,2.34,7.64,0,16.12-.71,24.37-2.85,19.4-5.03,28.55-11.69,32.04-14.87,1.94,5.34,3.41,9.36,4.23,11.54l.05.12c1.07,2.21-.47,4.58-2.29,6.07Z"/>
</svg>